<svg xmlns="http://www.w3.org/2000/svg" width="100" height="100" viewBox="0 0 100 100">
  <g id="Group_510" data-name="Group 510" transform="translate(-393 -800)">
    <g id="Rectangle_20" data-name="Rectangle 20" transform="translate(393 800)" fill="rgba(1,14,18,0)" stroke="#87bdd9" stroke-width="2">
      <rect width="100" height="100" rx="10" stroke="none"/>
      <rect x="1" y="1" width="98" height="98" rx="9" fill="none"/>
    </g>
    <g id="noun-statistics-1185368" transform="translate(367.7 814.701)">
      <path id="Path_4111" data-name="Path 4111" d="M75.3,75.3h-40v-40h5v35h35Z" fill="#87bdd9"/>
      <path id="Path_4112" data-name="Path 4112" d="M317.65,741.18h5v5h-5Z" transform="translate(-272.35 -680.88)" fill="#87bdd9"/>
      <path id="Path_4113" data-name="Path 4113" d="M317.65,458.82h5v5h-5Z" transform="translate(-272.35 -408.521)" fill="#87bdd9"/>
      <path id="Path_4114" data-name="Path 4114" d="M317.65,176.47h5v5h-5Z" transform="translate(-272.35 -136.17)" fill="#87bdd9"/>
      <path id="Path_4115" data-name="Path 4115" d="M600,741.18h5v5h-5Z" transform="translate(-544.701 -680.88)" fill="#87bdd9"/>
      <path id="Path_4116" data-name="Path 4116" d="M600,458.82h5v5h-5Z" transform="translate(-544.701 -408.521)" fill="#87bdd9"/>
      <path id="Path_4117" data-name="Path 4117" d="M882.35,741.18h5v5h-5Z" transform="translate(-817.051 -680.88)" fill="#87bdd9"/>
    </g>
    <path id="noun-earth-3500100" d="M29.993,0A30,30,0,1,0,60,29.993,30.016,30.016,0,0,0,29.993,0Zm0,3.75a26.2,26.2,0,0,1,25.6,32.036h0a1.885,1.885,0,0,0-.392.077l-5.746,1.8a45.066,45.066,0,0,1-3.406-3.849,21.528,21.528,0,0,0-3.64-3.776,1.856,1.856,0,0,0-2.131-.059l-4.691,3.047a1.874,1.874,0,0,0-.524,2.615l5.563,8.251L38.88,46.714a1.874,1.874,0,0,0-.264,1.22l.817,6.544a26.186,26.186,0,0,1-8.719,1.736l-3.3-9.39a1.874,1.874,0,0,0-1.937-1.245l-5.757.553c-.412-.87-1.208-2.552-2.036-4.677.593-3.37.891-7.3.956-8.251l5.149-3.252,9.218,1.33a1.875,1.875,0,0,0,1.966-1.04l2.062-4.332,4.237-2.52a1.875,1.875,0,0,0,.927-1.674l-.359-10.173a1.874,1.874,0,0,0-1.3-1.718,13.365,13.365,0,0,0-3.417-.553,7.992,7.992,0,0,0-3.062.458A5.157,5.157,0,0,0,31.3,12.151a3.608,3.608,0,0,1-.762,1.095.818.818,0,0,1-.542.209c-.632.084-2.181-.134-4.537-.293h0a1.874,1.874,0,0,0-1.677.817l-4.164,6.134L15.959,18.5,18.713,14.4a1.874,1.874,0,0,0,.319-1.219l-.333-3.5L20.43,5.567A26.2,26.2,0,0,1,29.992,3.75ZM15.205,8.3l-.146.348a1.875,1.875,0,0,0-.139.916l.3,3.292L11.6,18.285a1.875,1.875,0,0,0,.8,2.754l7.145,3.142a1.874,1.874,0,0,0,2.3-.666l4.442-6.559a18.647,18.647,0,0,0,4.208.209,4.877,4.877,0,0,0,2.424-1.025,6.957,6.957,0,0,0,1.714-2.271,1.189,1.189,0,0,1,.762-.637,4.833,4.833,0,0,1,2.769-.04l.249,7.544-3.779,2.241a1.874,1.874,0,0,0-.732.8l-1.718,3.6-8.525-1.23a1.875,1.875,0,0,0-1.274.26l-6.49,4.1a1.875,1.875,0,0,0-.872,1.454s-.432,6.208-1.08,9.412h0a1.875,1.875,0,0,0,.084,1.025c1.136,3.03,2.834,6.544,2.834,6.544a1.875,1.875,0,0,0,1.871,1.055l5.647-.557,2.3,6.581A26.247,26.247,0,0,1,15.205,8.3ZM41.038,33.951A10.1,10.1,0,0,1,43.089,36.1a64.787,64.787,0,0,0,4.428,5.025h0a1.875,1.875,0,0,0,1.9.469l4.823-1.5A26.285,26.285,0,0,1,43,52.793l-.579-4.669,2.036-3.292a1.874,1.874,0,0,0-.04-2.036L39.24,35.127Z" transform="translate(425 808)" fill="#87bdd9" fill-rule="evenodd"/>
  </g>
</svg>
